<?xml version="1.0" encoding="utf-8"?>
<!-- Generator: Adobe Illustrator 16.0.4, SVG Export Plug-In . SVG Version: 6.00 Build 0)  -->
<!DOCTYPE svg PUBLIC "-//W3C//DTD SVG 1.1//EN" "http://www.w3.org/Graphics/SVG/1.1/DTD/svg11.dtd">
<svg version="1.1" xmlns="http://www.w3.org/2000/svg" xmlns:xlink="http://www.w3.org/1999/xlink" x="0px" y="0px" width="100px"
	 height="100px" viewBox="0 0 100 100" enable-background="new 0 0 100 100" xml:space="preserve">
<g id="Layer_3">
	<path fill="none" stroke="#000000" stroke-miterlimit="10" d="M97.5,75H59.615c-0.115,1.29-2.298,2.083-5.115,2.083H45
		c-2.92,0-5.159-1.137-5.12-2.083H2.5C1.125,75,0,75.469,0,76.042v1.041c0,2.292,4.5,4.167,10,4.167h80c5.5,0,10-1.875,10-4.167
		v-1.041C100,75.469,98.875,75,97.5,75z M90,17.5c0-4.125-3.375-7.5-7.5-7.5h-65c-4.125,0-7.5,3.375-7.5,7.5V70h80V17.5z M85.5,63
		h-71V19h71V63z"/>
</g>
<g id="Layer_4">
	<text transform="matrix(1 0 0 1 27 49.5957)" font-family="'MyriadPro-Regular'" font-size="33.6192">&lt; &gt;</text>
</g>
<g id="Layer_2">
	<path d="M89.679,45.573H74.18c-1.834,0-3.321,1.488-3.321,3.321v28.785c0,1.833,1.487,3.321,3.321,3.321h15.499
		C91.512,81,93,79.512,93,77.679V48.894C93,47.061,91.512,45.573,89.679,45.573z M81.929,78.786c-1.225,0-2.214-0.989-2.214-2.215
		c0-1.225,0.989-2.214,2.214-2.214s2.214,0.989,2.214,2.214C84.143,77.797,83.153,78.786,81.929,78.786z M89.679,71.312
		c0,0.457-0.374,0.83-0.83,0.83H75.01c-0.456,0-0.83-0.373-0.83-0.83V49.725c0-0.457,0.374-0.831,0.83-0.831h13.839
		c0.456,0,0.83,0.374,0.83,0.831V71.312z"/>
</g>
</svg>
