<?xml version="1.0" encoding="UTF-8" standalone="no"?>
<!DOCTYPE svg PUBLIC "-//W3C//DTD SVG 1.1//EN" "http://www.w3.org/Graphics/SVG/1.1/DTD/svg11.dtd">
<svg width="100%" height="100%" viewBox="0 0 300 90" version="1.1" xmlns="http://www.w3.org/2000/svg" xmlns:xlink="http://www.w3.org/1999/xlink" xml:space="preserve" xmlns:serif="http://www.serif.com/" style="fill-rule:evenodd;clip-rule:evenodd;stroke-linecap:round;stroke-linejoin:round;stroke-miterlimit:1.5;">
    <g transform="matrix(1.06909,0,0,0.494377,-14.1055,-5.65202)">
        <rect x="16" y="15" width="275" height="173" style="fill:white;stroke:black;stroke-width:0.5px;"/>
    </g>
    <g transform="matrix(1.06909,0,0,1.06909,-14.1055,-8.90869)">
        <g transform="matrix(0.443041,0,0,0.443041,9.84149,35.7783)">
            <g transform="matrix(50,0,0,50,34.8824,96.0495)">
                <path d="M0.506,-0.592C0.46,-0.643 0.395,-0.669 0.311,-0.669C0.242,-0.669 0.191,-0.656 0.16,-0.63C0.128,-0.603 0.112,-0.568 0.112,-0.523C0.112,-0.5 0.116,-0.482 0.124,-0.467C0.132,-0.452 0.145,-0.439 0.162,-0.428C0.179,-0.417 0.2,-0.408 0.226,-0.401C0.252,-0.394 0.283,-0.386 0.32,-0.378C0.358,-0.37 0.393,-0.361 0.424,-0.352C0.455,-0.342 0.481,-0.33 0.503,-0.315C0.524,-0.3 0.541,-0.282 0.553,-0.261C0.564,-0.24 0.57,-0.213 0.57,-0.182C0.57,-0.151 0.564,-0.123 0.552,-0.1C0.539,-0.077 0.522,-0.057 0.5,-0.042C0.477,-0.026 0.451,-0.014 0.42,-0.006C0.389,0.002 0.354,0.006 0.316,0.006C0.205,0.006 0.112,-0.029 0.035,-0.1L0.062,-0.141C0.092,-0.11 0.129,-0.085 0.172,-0.067C0.215,-0.048 0.264,-0.039 0.318,-0.039C0.38,-0.039 0.429,-0.05 0.464,-0.073C0.499,-0.096 0.516,-0.13 0.516,-0.176C0.516,-0.199 0.511,-0.219 0.502,-0.236C0.493,-0.252 0.479,-0.266 0.461,-0.278C0.442,-0.29 0.419,-0.3 0.391,-0.309C0.363,-0.318 0.33,-0.326 0.293,-0.334C0.255,-0.342 0.222,-0.351 0.193,-0.36C0.164,-0.369 0.139,-0.38 0.12,-0.394C0.1,-0.407 0.085,-0.424 0.075,-0.443C0.065,-0.462 0.06,-0.487 0.06,-0.516C0.06,-0.548 0.066,-0.576 0.079,-0.601C0.091,-0.626 0.108,-0.647 0.13,-0.664C0.152,-0.681 0.178,-0.693 0.209,-0.702C0.24,-0.711 0.274,-0.715 0.311,-0.715C0.357,-0.715 0.398,-0.708 0.434,-0.695C0.47,-0.681 0.503,-0.66 0.532,-0.632L0.506,-0.592Z" style="fill-rule:nonzero;"/>
            </g>
            <g transform="matrix(50,0,0,50,65.1324,96.0495)">
                <path d="M0.566,-0.046L0.566,0L0.093,0L0.093,-0.71L0.557,-0.71L0.557,-0.664L0.144,-0.664L0.144,-0.385L0.505,-0.385L0.505,-0.341L0.144,-0.341L0.144,-0.046L0.566,-0.046Z" style="fill-rule:nonzero;"/>
            </g>
            <g transform="matrix(50,0,0,50,94.9824,96.0495)">
                <path d="M0.044,-0.36C0.044,-0.403 0.051,-0.445 0.067,-0.488C0.082,-0.53 0.103,-0.568 0.132,-0.601C0.161,-0.634 0.196,-0.662 0.238,-0.683C0.279,-0.704 0.327,-0.714 0.38,-0.714C0.443,-0.714 0.497,-0.7 0.542,-0.671C0.587,-0.642 0.62,-0.604 0.642,-0.559L0.6,-0.535C0.587,-0.56 0.572,-0.58 0.556,-0.597C0.539,-0.614 0.52,-0.627 0.501,-0.638C0.481,-0.648 0.46,-0.655 0.439,-0.66C0.418,-0.665 0.397,-0.667 0.376,-0.667C0.331,-0.667 0.291,-0.658 0.256,-0.64C0.221,-0.621 0.192,-0.597 0.168,-0.568C0.144,-0.539 0.126,-0.506 0.114,-0.469C0.101,-0.432 0.095,-0.394 0.095,-0.357C0.095,-0.315 0.102,-0.275 0.117,-0.237C0.132,-0.199 0.152,-0.166 0.177,-0.137C0.202,-0.108 0.232,-0.084 0.267,-0.067C0.302,-0.05 0.339,-0.041 0.379,-0.041C0.4,-0.041 0.422,-0.044 0.445,-0.049C0.468,-0.054 0.489,-0.063 0.51,-0.074C0.531,-0.085 0.55,-0.1 0.568,-0.118C0.586,-0.135 0.601,-0.156 0.613,-0.18L0.657,-0.159C0.645,-0.132 0.629,-0.109 0.608,-0.088C0.587,-0.067 0.564,-0.05 0.539,-0.036C0.514,-0.022 0.487,-0.012 0.459,-0.005C0.43,0.003 0.402,0.006 0.375,0.006C0.326,0.006 0.282,-0.005 0.242,-0.026C0.201,-0.047 0.166,-0.075 0.137,-0.11C0.108,-0.144 0.085,-0.183 0.069,-0.227C0.052,-0.27 0.044,-0.315 0.044,-0.36Z" style="fill-rule:nonzero;"/>
            </g>
            <g transform="matrix(50,0,0,50,129.482,96.0495)">
                <path d="M0.378,-0.042C0.426,-0.042 0.466,-0.051 0.498,-0.069C0.529,-0.087 0.554,-0.111 0.573,-0.14C0.591,-0.169 0.604,-0.203 0.612,-0.24C0.619,-0.277 0.623,-0.315 0.623,-0.353L0.623,-0.71L0.674,-0.71L0.674,-0.353C0.674,-0.306 0.669,-0.26 0.659,-0.217C0.648,-0.174 0.631,-0.135 0.608,-0.103C0.585,-0.07 0.554,-0.043 0.517,-0.024C0.48,-0.005 0.434,0.005 0.379,0.005C0.322,0.005 0.275,-0.005 0.237,-0.026C0.199,-0.046 0.168,-0.073 0.146,-0.107C0.123,-0.14 0.106,-0.178 0.097,-0.221C0.087,-0.264 0.082,-0.308 0.082,-0.353L0.082,-0.71L0.133,-0.71L0.133,-0.353C0.133,-0.314 0.137,-0.275 0.145,-0.238C0.152,-0.201 0.166,-0.167 0.185,-0.139C0.204,-0.11 0.229,-0.086 0.26,-0.069C0.291,-0.051 0.331,-0.042 0.378,-0.042Z" style="fill-rule:nonzero;"/>
            </g>
            <g transform="matrix(50,0,0,50,167.282,96.0495)">
                <path d="M0.093,0L0.093,-0.71L0.388,-0.71C0.418,-0.71 0.446,-0.704 0.471,-0.691C0.496,-0.678 0.518,-0.662 0.537,-0.641C0.555,-0.619 0.569,-0.596 0.58,-0.57C0.59,-0.543 0.595,-0.517 0.595,-0.49C0.595,-0.464 0.591,-0.439 0.583,-0.415C0.575,-0.39 0.564,-0.368 0.549,-0.349C0.534,-0.33 0.517,-0.314 0.496,-0.301C0.475,-0.288 0.453,-0.28 0.428,-0.276L0.605,0L0.546,0L0.374,-0.268L0.144,-0.268L0.144,0L0.093,0ZM0.144,-0.315L0.393,-0.315C0.416,-0.315 0.436,-0.32 0.455,-0.33C0.474,-0.34 0.49,-0.353 0.503,-0.37C0.516,-0.386 0.527,-0.405 0.534,-0.426C0.541,-0.447 0.544,-0.468 0.544,-0.49C0.544,-0.513 0.54,-0.535 0.532,-0.556C0.523,-0.576 0.512,-0.595 0.498,-0.611C0.483,-0.627 0.467,-0.64 0.448,-0.65C0.428,-0.659 0.408,-0.664 0.386,-0.664L0.144,-0.664L0.144,-0.315Z" style="fill-rule:nonzero;"/>
            </g>
            <g transform="matrix(50,0,0,50,199.732,96.0495)">
                <rect x="0.093" y="-0.71" width="0.051" height="0.71" style="fill-rule:nonzero;"/>
            </g>
            <g transform="matrix(50,0,0,50,211.582,96.0495)">
                <path d="M0.589,-0.664L0.329,-0.664L0.329,0L0.278,0L0.278,-0.664L0.018,-0.664L0.018,-0.71L0.589,-0.71L0.589,-0.664Z" style="fill-rule:nonzero;"/>
            </g>
            <g transform="matrix(50,0,0,50,241.882,96.0495)">
                <path d="M0.075,-0.71L0.323,-0.317L0.572,-0.71L0.629,-0.71L0.349,-0.268L0.349,0L0.298,0L0.298,-0.27L0.019,-0.71L0.075,-0.71Z" style="fill-rule:nonzero;"/>
            </g>
            <g transform="matrix(50,0,0,50,285.382,96.0495)">
                <path d="M0.044,-0.36C0.044,-0.403 0.051,-0.445 0.067,-0.488C0.082,-0.53 0.103,-0.568 0.132,-0.601C0.161,-0.634 0.196,-0.662 0.238,-0.683C0.279,-0.704 0.327,-0.714 0.38,-0.714C0.443,-0.714 0.497,-0.7 0.542,-0.671C0.587,-0.642 0.62,-0.604 0.642,-0.559L0.6,-0.535C0.587,-0.56 0.572,-0.58 0.556,-0.597C0.539,-0.614 0.52,-0.627 0.501,-0.638C0.481,-0.648 0.46,-0.655 0.439,-0.66C0.418,-0.665 0.397,-0.667 0.376,-0.667C0.331,-0.667 0.291,-0.658 0.256,-0.64C0.221,-0.621 0.192,-0.597 0.168,-0.568C0.144,-0.539 0.126,-0.506 0.114,-0.469C0.101,-0.432 0.095,-0.394 0.095,-0.357C0.095,-0.315 0.102,-0.275 0.117,-0.237C0.132,-0.199 0.152,-0.166 0.177,-0.137C0.202,-0.108 0.232,-0.084 0.267,-0.067C0.302,-0.05 0.339,-0.041 0.379,-0.041C0.4,-0.041 0.422,-0.044 0.445,-0.049C0.468,-0.054 0.489,-0.063 0.51,-0.074C0.531,-0.085 0.55,-0.1 0.568,-0.118C0.586,-0.135 0.601,-0.156 0.613,-0.18L0.657,-0.159C0.645,-0.132 0.629,-0.109 0.608,-0.088C0.587,-0.067 0.564,-0.05 0.539,-0.036C0.514,-0.022 0.487,-0.012 0.459,-0.005C0.43,0.003 0.402,0.006 0.375,0.006C0.326,0.006 0.282,-0.005 0.242,-0.026C0.201,-0.047 0.166,-0.075 0.137,-0.11C0.108,-0.144 0.085,-0.183 0.069,-0.227C0.052,-0.27 0.044,-0.315 0.044,-0.36Z" style="fill-rule:nonzero;"/>
            </g>
            <g transform="matrix(50,0,0,50,319.532,96.0495)">
                <path d="M0.376,0.005C0.327,0.005 0.282,-0.005 0.241,-0.026C0.2,-0.047 0.165,-0.074 0.136,-0.107C0.107,-0.14 0.084,-0.179 0.068,-0.222C0.052,-0.265 0.044,-0.31 0.044,-0.355C0.044,-0.402 0.053,-0.448 0.07,-0.491C0.087,-0.534 0.11,-0.573 0.14,-0.606C0.169,-0.639 0.204,-0.666 0.245,-0.686C0.286,-0.705 0.33,-0.715 0.377,-0.715C0.426,-0.715 0.471,-0.705 0.513,-0.684C0.554,-0.663 0.589,-0.635 0.618,-0.601C0.647,-0.567 0.669,-0.529 0.685,-0.486C0.701,-0.442 0.709,-0.399 0.709,-0.355C0.709,-0.307 0.7,-0.261 0.684,-0.218C0.667,-0.175 0.643,-0.136 0.614,-0.104C0.584,-0.071 0.549,-0.044 0.508,-0.025C0.467,-0.005 0.423,0.005 0.376,0.005ZM0.095,-0.355C0.095,-0.314 0.102,-0.275 0.116,-0.238C0.129,-0.2 0.149,-0.167 0.174,-0.138C0.199,-0.109 0.228,-0.085 0.263,-0.068C0.298,-0.051 0.336,-0.042 0.377,-0.042C0.42,-0.042 0.458,-0.051 0.493,-0.069C0.527,-0.087 0.556,-0.111 0.581,-0.141C0.605,-0.17 0.624,-0.204 0.637,-0.241C0.65,-0.278 0.657,-0.316 0.657,-0.355C0.657,-0.396 0.65,-0.435 0.636,-0.473C0.622,-0.51 0.603,-0.544 0.578,-0.573C0.553,-0.602 0.523,-0.625 0.489,-0.642C0.455,-0.659 0.418,-0.668 0.377,-0.668C0.334,-0.668 0.296,-0.659 0.261,-0.641C0.226,-0.623 0.197,-0.599 0.172,-0.57C0.147,-0.54 0.128,-0.506 0.115,-0.469C0.102,-0.432 0.095,-0.394 0.095,-0.355Z" style="fill-rule:nonzero;"/>
            </g>
            <g transform="matrix(50,0,0,50,357.182,96.0495)">
                <path d="M0.736,0L0.736,-0.614L0.456,-0.135L0.424,-0.135L0.144,-0.614L0.144,0L0.093,0L0.093,-0.71L0.144,-0.71L0.44,-0.202L0.736,-0.71L0.787,-0.71L0.787,0L0.736,0Z" style="fill-rule:nonzero;"/>
            </g>
            <g transform="matrix(50,0,0,50,401.182,96.0495)">
                <path d="M0.093,0L0.093,-0.71L0.385,-0.71C0.415,-0.71 0.443,-0.704 0.468,-0.691C0.493,-0.678 0.515,-0.662 0.534,-0.641C0.552,-0.619 0.566,-0.596 0.577,-0.57C0.587,-0.543 0.592,-0.517 0.592,-0.49C0.592,-0.461 0.587,-0.434 0.578,-0.407C0.568,-0.38 0.554,-0.357 0.537,-0.336C0.519,-0.315 0.498,-0.299 0.473,-0.287C0.448,-0.274 0.421,-0.268 0.391,-0.268L0.144,-0.268L0.144,0L0.093,0ZM0.144,-0.315L0.389,-0.315C0.412,-0.315 0.433,-0.32 0.452,-0.33C0.471,-0.339 0.487,-0.352 0.5,-0.369C0.513,-0.385 0.523,-0.404 0.53,-0.425C0.537,-0.446 0.54,-0.467 0.54,-0.49C0.54,-0.513 0.536,-0.536 0.528,-0.557C0.519,-0.578 0.508,-0.596 0.494,-0.612C0.479,-0.628 0.463,-0.641 0.444,-0.65C0.425,-0.659 0.404,-0.664 0.383,-0.664L0.144,-0.664L0.144,-0.315Z" style="fill-rule:nonzero;"/>
            </g>
            <g transform="matrix(50,0,0,50,432.232,96.0495)">
                <path d="M0.093,0L0.093,-0.71L0.144,-0.71L0.144,-0.046L0.568,-0.046L0.568,0L0.093,0Z" style="fill-rule:nonzero;"/>
            </g>
            <g transform="matrix(50,0,0,50,461.282,96.0495)">
                <rect x="0.093" y="-0.71" width="0.051" height="0.71" style="fill-rule:nonzero;"/>
            </g>
            <g transform="matrix(50,0,0,50,473.132,96.0495)">
                <path d="M0.316,-0.71L0.36,-0.71L0.66,0L0.606,0L0.507,-0.234L0.168,-0.234L0.069,0L0.014,0L0.316,-0.71ZM0.493,-0.276L0.338,-0.648L0.18,-0.276L0.493,-0.276Z" style="fill-rule:nonzero;"/>
            </g>
            <g transform="matrix(50,0,0,50,506.882,96.0495)">
                <path d="M0.144,-0.614L0.144,0L0.093,0L0.093,-0.71L0.132,-0.71L0.63,-0.085L0.63,-0.71L0.681,-0.71L0.681,0L0.634,0L0.144,-0.614Z" style="fill-rule:nonzero;"/>
            </g>
            <g transform="matrix(50,0,0,50,545.532,96.0495)">
                <path d="M0.044,-0.36C0.044,-0.403 0.051,-0.445 0.067,-0.488C0.082,-0.53 0.103,-0.568 0.132,-0.601C0.161,-0.634 0.196,-0.662 0.238,-0.683C0.279,-0.704 0.327,-0.714 0.38,-0.714C0.443,-0.714 0.497,-0.7 0.542,-0.671C0.587,-0.642 0.62,-0.604 0.642,-0.559L0.6,-0.535C0.587,-0.56 0.572,-0.58 0.556,-0.597C0.539,-0.614 0.52,-0.627 0.501,-0.638C0.481,-0.648 0.46,-0.655 0.439,-0.66C0.418,-0.665 0.397,-0.667 0.376,-0.667C0.331,-0.667 0.291,-0.658 0.256,-0.64C0.221,-0.621 0.192,-0.597 0.168,-0.568C0.144,-0.539 0.126,-0.506 0.114,-0.469C0.101,-0.432 0.095,-0.394 0.095,-0.357C0.095,-0.315 0.102,-0.275 0.117,-0.237C0.132,-0.199 0.152,-0.166 0.177,-0.137C0.202,-0.108 0.232,-0.084 0.267,-0.067C0.302,-0.05 0.339,-0.041 0.379,-0.041C0.4,-0.041 0.422,-0.044 0.445,-0.049C0.468,-0.054 0.489,-0.063 0.51,-0.074C0.531,-0.085 0.55,-0.1 0.568,-0.118C0.586,-0.135 0.601,-0.156 0.613,-0.18L0.657,-0.159C0.645,-0.132 0.629,-0.109 0.608,-0.088C0.587,-0.067 0.564,-0.05 0.539,-0.036C0.514,-0.022 0.487,-0.012 0.459,-0.005C0.43,0.003 0.402,0.006 0.375,0.006C0.326,0.006 0.282,-0.005 0.242,-0.026C0.201,-0.047 0.166,-0.075 0.137,-0.11C0.108,-0.144 0.085,-0.183 0.069,-0.227C0.052,-0.27 0.044,-0.315 0.044,-0.36Z" style="fill-rule:nonzero;"/>
            </g>
            <g transform="matrix(50,0,0,50,580.032,96.0495)">
                <path d="M0.566,-0.046L0.566,0L0.093,0L0.093,-0.71L0.557,-0.71L0.557,-0.664L0.144,-0.664L0.144,-0.385L0.505,-0.385L0.505,-0.341L0.144,-0.341L0.144,-0.046L0.566,-0.046Z" style="fill-rule:nonzero;"/>
            </g>
        </g>
        <g transform="matrix(0.976006,0,0,0.976006,-25.1263,3.32185)">
            <g transform="matrix(50,0,0,50,50.5692,55.2567)">
                <path d="M0.057,0L0.057,-0.721L0.138,-0.721L0.138,-0.081L0.777,-0.081L0.777,0L0.057,0Z" style="fill-rule:nonzero;"/>
            </g>
            <g transform="matrix(50,0,0,50,89.5192,55.2567)">
                <rect x="0.052" y="-0.72" width="0.082" height="0.72" style="fill-rule:nonzero;"/>
            </g>
            <g transform="matrix(50,0,0,50,100.219,55.2567)">
                <path d="M0.176,0C0.143,0 0.114,-0.012 0.091,-0.035C0.068,-0.058 0.056,-0.087 0.056,-0.12L0.056,-0.6C0.056,-0.633 0.068,-0.662 0.091,-0.685C0.114,-0.708 0.143,-0.72 0.176,-0.72L0.774,-0.72L0.774,-0.639L0.176,-0.639C0.165,-0.639 0.156,-0.635 0.149,-0.628C0.141,-0.62 0.137,-0.611 0.137,-0.6L0.137,-0.12C0.137,-0.109 0.141,-0.1 0.149,-0.093C0.156,-0.085 0.165,-0.081 0.176,-0.081L0.774,-0.081L0.774,0L0.176,0Z" style="fill-rule:nonzero;"/>
            </g>
            <g transform="matrix(50,0,0,50,141.319,55.2567)">
                <path d="M0.058,0L0.058,-0.6C0.058,-0.633 0.07,-0.662 0.093,-0.685C0.116,-0.708 0.145,-0.72 0.178,-0.72L0.658,-0.72C0.691,-0.72 0.72,-0.708 0.743,-0.685C0.766,-0.662 0.778,-0.633 0.778,-0.6L0.778,0L0.697,0L0.697,-0.263L0.139,-0.263L0.139,0L0.058,0ZM0.139,-0.344L0.697,-0.344L0.697,-0.6C0.697,-0.611 0.693,-0.62 0.686,-0.628C0.678,-0.635 0.669,-0.639 0.658,-0.639L0.178,-0.639C0.167,-0.639 0.158,-0.635 0.151,-0.628C0.143,-0.62 0.139,-0.611 0.139,-0.6L0.139,-0.344Z" style="fill-rule:nonzero;"/>
            </g>
            <g transform="matrix(50,0,0,50,183.119,55.2567)">
                <path d="M0.34,0L0.34,-0.639L0.02,-0.639L0.02,-0.72L0.74,-0.72L0.74,-0.639L0.421,-0.639L0.421,0L0.34,0Z" style="fill-rule:nonzero;"/>
            </g>
            <g transform="matrix(50,0,0,50,221.069,55.2567)">
                <rect x="0.052" y="-0.72" width="0.082" height="0.72" style="fill-rule:nonzero;"/>
            </g>
            <g transform="matrix(50,0,0,50,231.769,55.2567)">
                <path d="M0.174,0C0.141,0 0.112,-0.012 0.089,-0.035C0.066,-0.058 0.054,-0.087 0.054,-0.12L0.054,-0.6C0.054,-0.633 0.066,-0.662 0.089,-0.685C0.112,-0.708 0.141,-0.72 0.174,-0.72L0.654,-0.72C0.687,-0.72 0.716,-0.708 0.739,-0.685C0.762,-0.662 0.774,-0.633 0.774,-0.6L0.774,-0.12C0.774,-0.087 0.762,-0.058 0.739,-0.035C0.716,-0.012 0.687,0 0.654,0L0.174,0ZM0.174,-0.081L0.654,-0.081C0.665,-0.081 0.674,-0.085 0.682,-0.093C0.689,-0.1 0.693,-0.109 0.693,-0.12L0.693,-0.6C0.693,-0.611 0.689,-0.62 0.682,-0.628C0.674,-0.635 0.665,-0.639 0.654,-0.639L0.174,-0.639C0.163,-0.639 0.154,-0.635 0.147,-0.628C0.139,-0.62 0.135,-0.611 0.135,-0.6L0.135,-0.12C0.135,-0.109 0.139,-0.1 0.147,-0.093C0.154,-0.085 0.163,-0.081 0.174,-0.081Z" style="fill-rule:nonzero;"/>
            </g>
            <g transform="matrix(50,0,0,50,273.169,55.2567)">
                <path d="M0.056,0L0.056,-0.72L0.167,-0.72L0.695,-0.092L0.695,-0.72L0.776,-0.72L0.776,0L0.665,0L0.137,-0.628L0.137,0L0.056,0Z" style="fill-rule:nonzero;"/>
            </g>
        </g>
    </g>
</svg>
