<?xml version="1.0" encoding="UTF-8" standalone="no"?>
<!DOCTYPE svg PUBLIC "-//W3C//DTD SVG 1.1//EN" "http://www.w3.org/Graphics/SVG/1.1/DTD/svg11.dtd">
<svg width="100%" height="100%" viewBox="0 0 300 25" version="1.1" xmlns="http://www.w3.org/2000/svg" xmlns:xlink="http://www.w3.org/1999/xlink" xml:space="preserve" xmlns:serif="http://www.serif.com/" style="fill-rule:evenodd;clip-rule:evenodd;stroke-linecap:round;stroke-linejoin:round;stroke-miterlimit:1.5;">
    <g transform="matrix(1.03093,0,0,1,-4.12371,7.5)">
        <path d="M4,5L295,5" style="fill:none;stroke:black;stroke-width:0.41px;"/>
    </g>
    <g transform="matrix(1.59259,0,0,1.59259,-88.8889,1.75)">
        <g transform="matrix(1.35,0,0,1.35,-45.75,0)">
            <circle cx="145" cy="5" r="5" style="fill:white;stroke:black;stroke-width:0.19px;"/>
        </g>
        <g transform="matrix(0.201234,0,0,0.201234,114.861,8.29033)">
            <g transform="matrix(50,0,0,50,149.441,5.42059)">
                <path d="M0.303,0.01C0.26,0.01 0.222,0.003 0.188,-0.012C0.154,-0.027 0.125,-0.047 0.102,-0.072C0.078,-0.096 0.06,-0.125 0.047,-0.158C0.034,-0.191 0.028,-0.225 0.028,-0.261C0.028,-0.298 0.034,-0.332 0.047,-0.365C0.06,-0.398 0.078,-0.427 0.102,-0.452C0.125,-0.476 0.154,-0.496 0.188,-0.511C0.222,-0.526 0.26,-0.533 0.303,-0.533C0.346,-0.533 0.384,-0.526 0.418,-0.511C0.451,-0.496 0.48,-0.476 0.504,-0.452C0.527,-0.427 0.545,-0.398 0.558,-0.365C0.571,-0.332 0.577,-0.298 0.577,-0.261C0.577,-0.225 0.571,-0.191 0.558,-0.158C0.545,-0.125 0.527,-0.096 0.504,-0.072C0.481,-0.047 0.452,-0.027 0.418,-0.012C0.384,0.003 0.346,0.01 0.303,0.01ZM0.166,-0.261C0.166,-0.238 0.169,-0.217 0.177,-0.198C0.184,-0.179 0.193,-0.162 0.206,-0.148C0.218,-0.134 0.232,-0.123 0.249,-0.116C0.266,-0.108 0.284,-0.104 0.303,-0.104C0.322,-0.104 0.34,-0.108 0.357,-0.116C0.374,-0.123 0.388,-0.134 0.401,-0.148C0.413,-0.162 0.423,-0.179 0.43,-0.198C0.436,-0.217 0.44,-0.239 0.44,-0.262C0.44,-0.285 0.436,-0.306 0.43,-0.325C0.423,-0.344 0.413,-0.361 0.401,-0.375C0.388,-0.389 0.374,-0.4 0.357,-0.408C0.34,-0.415 0.322,-0.419 0.303,-0.419C0.284,-0.419 0.266,-0.415 0.249,-0.407C0.232,-0.399 0.218,-0.388 0.206,-0.374C0.193,-0.36 0.184,-0.343 0.177,-0.324C0.169,-0.305 0.166,-0.284 0.166,-0.261Z" style="fill-rule:nonzero;"/>
            </g>
            <g transform="matrix(50,0,0,50,179.741,5.42059)">
                <path d="M0.373,-0.408C0.332,-0.407 0.296,-0.4 0.264,-0.385C0.232,-0.37 0.209,-0.347 0.195,-0.317L0.195,0L0.061,0L0.061,-0.524L0.184,-0.524L0.184,-0.412C0.193,-0.43 0.204,-0.446 0.217,-0.461C0.23,-0.475 0.243,-0.487 0.258,-0.498C0.273,-0.509 0.288,-0.517 0.303,-0.523C0.318,-0.528 0.332,-0.531 0.346,-0.531L0.363,-0.531C0.366,-0.531 0.37,-0.531 0.373,-0.53L0.373,-0.408Z" style="fill-rule:nonzero;"/>
            </g>
        </g>
    </g>
</svg>
