<?xml version="1.0" encoding="UTF-8" standalone="no"?>
<!DOCTYPE svg PUBLIC "-//W3C//DTD SVG 1.1//EN" "http://www.w3.org/Graphics/SVG/1.1/DTD/svg11.dtd">
<svg width="100%" height="100%" viewBox="0 0 44 45" version="1.1" xmlns="http://www.w3.org/2000/svg" xmlns:xlink="http://www.w3.org/1999/xlink" xml:space="preserve" xmlns:serif="http://www.serif.com/" style="fill-rule:evenodd;clip-rule:evenodd;stroke-linejoin:round;stroke-miterlimit:2;">
    <g transform="matrix(0.0976563,0,0,0.0982143,0,-2.64286)">
        <path d="M400,32L48,32C21.49,32 0,53.49 0,80L0,432C0,458.51 21.49,480 48,480L400,480C426.51,480 448,458.51 448,432L448,80C448,53.49 426.51,32 400,32ZM400,432L48,432L48,80L400,80L400,432ZM364.136,190.276L191.547,361.48C186.842,366.147 179.244,366.117 174.577,361.412L83.796,269.896C79.129,265.191 79.159,257.593 83.865,252.925L106.584,230.389C111.289,225.722 118.887,225.752 123.554,230.458L183.346,290.735L324.698,150.519C329.403,145.852 337.001,145.882 341.668,150.587L364.204,173.305C368.871,178.011 368.841,185.609 364.136,190.276Z" style="fill-rule:nonzero;"/>
    </g>
</svg>
